<svg xmlns="http://www.w3.org/2000/svg" xmlns:xlink="http://www.w3.org/1999/xlink" class="looka-1j8o68f" viewBox="0 0 100.452 99.997">
  <defs>
    <linearGradient id="a">
      <stop offset="0" stop-color="#d1f0fa"/>
      <stop offset="1" stop-color="#05242e"/>
    </linearGradient>
    <linearGradient xlink:href="#a" id="b" x1=".5" x2="164.18" y1="82.659" y2="82.659" gradientUnits="userSpaceOnUse"/>
  </defs>
  <path fill="url(#b)" fill-rule="evenodd" stroke="#273c44" stroke-linecap="round" stroke-linejoin="round" stroke-width="1.484" d="M92.69 143.565a61.433 61.433 0 0 1-17.963.395l-11.105 20.539-22.691-8.81 5.664-22.652a61.407 61.407 0 0 1-12.99-12.413l-22.37 6.669-9.815-22.274 20.014-12.008a61.439 61.439 0 0 1-.394-17.964L.5 63.941l8.81-22.692 22.651 5.664a61.392 61.392 0 0 1 12.415-12.99l-6.669-22.369 22.274-9.815L71.99 21.755a61.433 61.433 0 0 1 17.963-.396L101.06.82l22.689 8.81-5.663 22.652a61.407 61.407 0 0 1 12.99 12.413l22.37-6.669 9.815 22.275-20.015 12.007a61.41 61.41 0 0 1 .395 17.965l20.539 11.104-8.811 22.691-22.651-5.663a61.382 61.382 0 0 1-12.414 12.989l6.669 22.369-22.274 9.816zm-34.418-25.386V91.632c0-2.224 4.921-5.345 9.754-6.636 3.87-1.434 9.945-.02 9.558-6.415a11.487 11.487 0 0 1-6.668-10.429c0-1.354.188-2.584.522-3.695h21.805c.335 1.111.521 2.342.521 3.695 0 4.623-2.731 8.607-6.667 10.429-.388 6.396 5.688 4.981 9.559 6.416 4.833 1.292 9.753 4.412 9.753 6.635v26.551c16.856-11.393 23.686-33.546 15.191-52.823-9.554-21.683-34.877-31.515-56.56-21.96-21.683 9.554-31.515 34.877-21.96 56.56a42.703 42.703 0 0 0 15.192 18.219zm12.292-59.194h-.289c-1.995 0-1.995 3.016 0 3.016h24.131c1.995 0 1.995-3.016 0-3.016h-.289c-2.329-15.28-21.224-15.28-23.553 0z" clip-rule="evenodd" paint-order="stroke fill markers" transform="matrix(.6082 0 0 .6054 .147 -.047)"/>
</svg>
