<?xml version="1.0" encoding="UTF-8" standalone="no"?>
<svg
   width="223.1667"
   height="222.1563"
   viewBox="0 0 100.45217 99.997361"
   class="looka-1j8o68f"
   version="1.1"
   id="svg3"
   sodipodi:docname="svgviewer-output.svg"
   xmlns:inkscape="http://www.inkscape.org/namespaces/inkscape"
   xmlns:sodipodi="http://sodipodi.sourceforge.net/DTD/sodipodi-0.dtd"
   xmlns:xlink="http://www.w3.org/1999/xlink"
   xmlns="http://www.w3.org/2000/svg"
   xmlns:svg="http://www.w3.org/2000/svg">
  <sodipodi:namedview
     id="namedview3"
     pagecolor="#ffffff"
     bordercolor="#000000"
     borderopacity="0.25"
     inkscape:showpageshadow="2"
     inkscape:pageopacity="0.0"
     inkscape:pagecheckerboard="0"
     inkscape:deskcolor="#d1d1d1" />
  <defs
     id="SvgjsDefs3170">
    <linearGradient
       id="linearGradient64"
       inkscape:collect="always">
      <stop
         style="stop-color:#d1f0fa;stop-opacity:1;"
         offset="0"
         id="stop65" />
      <stop
         style="stop-color:#05242e;stop-opacity:1;"
         offset="1"
         id="stop67" />
    </linearGradient>
    <linearGradient
       inkscape:collect="always"
       xlink:href="#linearGradient64"
       id="linearGradient66"
       x1="0.5"
       y1="82.6595"
       x2="164.17999"
       y2="82.6595"
       gradientUnits="userSpaceOnUse" />
    <linearGradient
       inkscape:collect="always"
       xlink:href="#linearGradient64"
       id="linearGradient68"
       gradientUnits="userSpaceOnUse"
       x1="0.5"
       y1="82.6595"
       x2="164.17999"
       y2="82.6595" />
  </defs>
  <g
     id="SvgjsG3171"
     featurekey="mugSzh-0"
     transform="matrix(0.60819828,0,0,0.6054483,0.14703278,-0.04737549)"
     fill="url(#SvgjsLinearGradient3177)"
     style="fill:url(#linearGradient66);fill-rule:evenodd;stroke:#273c44;stroke-width:1.48354;stroke-linecap:round;stroke-linejoin:round;stroke-dasharray:none;stroke-opacity:1;paint-order:stroke fill markers"
     inkscape:label="icon"
     inkscape:export-filename="logo.svg"
     inkscape:export-xdpi="96"
     inkscape:export-ydpi="96">
    <path
       fill-rule="evenodd"
       clip-rule="evenodd"
       fill="url(#SvgjsLinearGradient3177)"
       d="m 92.69,143.565 c -6.015,1.026 -12.063,1.133 -17.963,0.395 l -11.105,20.539 -22.691,-8.81 5.664,-22.652 C 41.742,129.6 37.351,125.44 33.605,120.624 L 11.235,127.293 1.42,105.019 21.434,93.011 C 20.409,86.996 20.301,80.947 21.04,75.047 L 0.5,63.941 9.31,41.249 31.961,46.913 c 3.437,-4.853 7.598,-9.244 12.415,-12.99 L 37.707,11.554 59.981,1.739 71.99,21.755 c 6.015,-1.026 12.063,-1.134 17.963,-0.396 L 101.06,0.82 l 22.689,8.81 -5.663,22.652 c 4.853,3.437 9.244,7.597 12.99,12.413 l 22.37,-6.669 9.815,22.275 -20.015,12.007 c 1.026,6.015 1.134,12.063 0.395,17.965 l 20.539,11.104 -8.811,22.691 -22.651,-5.663 c -3.437,4.853 -7.597,9.243 -12.414,12.989 l 6.669,22.369 -22.274,9.816 z M 58.272,118.179 V 91.632 c 0,-2.224 4.921,-5.345 9.754,-6.636 3.87,-1.434 9.945,-0.02 9.558,-6.415 -3.936,-1.821 -6.668,-5.806 -6.668,-10.429 0,-1.354 0.188,-2.584 0.522,-3.695 h 21.805 c 0.335,1.111 0.521,2.342 0.521,3.695 0,4.623 -2.731,8.607 -6.667,10.429 -0.388,6.396 5.688,4.981 9.559,6.416 4.833,1.292 9.753,4.412 9.753,6.635 v 26.551 C 123.265,106.79 130.095,84.637 121.6,65.36 112.046,43.677 86.723,33.845 65.04,43.4 43.357,52.954 33.525,78.277 43.08,99.96 c 3.378,7.666 8.73,13.849 15.192,18.219 z M 70.564,58.985 h -0.289 c -1.995,0 -1.995,3.016 0,3.016 h 24.131 c 1.995,0 1.995,-3.016 0,-3.016 h -0.289 c -2.329,-15.28 -21.224,-15.28 -23.553,0 z"
       id="path1"
       style="fill:url(#linearGradient68);fill-rule:evenodd;stroke:#273c44;stroke-width:1.48354;stroke-linecap:round;stroke-linejoin:round;stroke-dasharray:none;stroke-opacity:1;paint-order:stroke fill markers" />
  </g>
</svg>
