<?xml version="1.0" encoding="UTF-8" standalone="no"?>
<svg
   width="822.00232"
   height="222.1563"
   viewBox="0 0 370.00104 99.997361"
   class="looka-1j8o68f"
   version="1.1"
   id="svg3"
   sodipodi:docname="svgviewer-output.svg"
   xmlns:inkscape="http://www.inkscape.org/namespaces/inkscape"
   xmlns:sodipodi="http://sodipodi.sourceforge.net/DTD/sodipodi-0.dtd"
   xmlns:xlink="http://www.w3.org/1999/xlink"
   xmlns="http://www.w3.org/2000/svg"
   xmlns:svg="http://www.w3.org/2000/svg">
  <sodipodi:namedview
     id="namedview3"
     pagecolor="#ffffff"
     bordercolor="#000000"
     borderopacity="0.25"
     inkscape:showpageshadow="2"
     inkscape:pageopacity="0.0"
     inkscape:pagecheckerboard="0"
     inkscape:deskcolor="#d1d1d1" />
  <defs
     id="SvgjsDefs3170">
    <linearGradient
       id="linearGradient64"
       inkscape:collect="always">
      <stop
         style="stop-color:#d1f0fa;stop-opacity:1;"
         offset="0"
         id="stop65" />
      <stop
         style="stop-color:#05242e;stop-opacity:1;"
         offset="1"
         id="stop67" />
    </linearGradient>
    <linearGradient
       inkscape:collect="always"
       xlink:href="#linearGradient64"
       id="linearGradient66"
       x1="0.5"
       y1="82.6595"
       x2="164.17999"
       y2="82.6595"
       gradientUnits="userSpaceOnUse" />
    <linearGradient
       inkscape:collect="always"
       xlink:href="#linearGradient64"
       id="linearGradient68"
       gradientUnits="userSpaceOnUse"
       x1="0.5"
       y1="82.6595"
       x2="164.17999"
       y2="82.6595" />
  </defs>
  <g
     id="SvgjsG3171"
     featurekey="mugSzh-0"
     transform="matrix(0.60819828,0,0,0.6054483,0.14703278,-0.04737549)"
     fill="url(#SvgjsLinearGradient3177)"
     style="fill:url(#linearGradient66);fill-rule:evenodd;stroke:#273c44;stroke-width:1.48354;stroke-linecap:round;stroke-linejoin:round;stroke-dasharray:none;stroke-opacity:1;paint-order:stroke fill markers"
     inkscape:label="icon">
    <path
       fill-rule="evenodd"
       clip-rule="evenodd"
       fill="url(#SvgjsLinearGradient3177)"
       d="m 92.69,143.565 c -6.015,1.026 -12.063,1.133 -17.963,0.395 l -11.105,20.539 -22.691,-8.81 5.664,-22.652 C 41.742,129.6 37.351,125.44 33.605,120.624 L 11.235,127.293 1.42,105.019 21.434,93.011 C 20.409,86.996 20.301,80.947 21.04,75.047 L 0.5,63.941 9.31,41.249 31.961,46.913 c 3.437,-4.853 7.598,-9.244 12.415,-12.99 L 37.707,11.554 59.981,1.739 71.99,21.755 c 6.015,-1.026 12.063,-1.134 17.963,-0.396 L 101.06,0.82 l 22.689,8.81 -5.663,22.652 c 4.853,3.437 9.244,7.597 12.99,12.413 l 22.37,-6.669 9.815,22.275 -20.015,12.007 c 1.026,6.015 1.134,12.063 0.395,17.965 l 20.539,11.104 -8.811,22.691 -22.651,-5.663 c -3.437,4.853 -7.597,9.243 -12.414,12.989 l 6.669,22.369 -22.274,9.816 z M 58.272,118.179 V 91.632 c 0,-2.224 4.921,-5.345 9.754,-6.636 3.87,-1.434 9.945,-0.02 9.558,-6.415 -3.936,-1.821 -6.668,-5.806 -6.668,-10.429 0,-1.354 0.188,-2.584 0.522,-3.695 h 21.805 c 0.335,1.111 0.521,2.342 0.521,3.695 0,4.623 -2.731,8.607 -6.667,10.429 -0.388,6.396 5.688,4.981 9.559,6.416 4.833,1.292 9.753,4.412 9.753,6.635 v 26.551 C 123.265,106.79 130.095,84.637 121.6,65.36 112.046,43.677 86.723,33.845 65.04,43.4 43.357,52.954 33.525,78.277 43.08,99.96 c 3.378,7.666 8.73,13.849 15.192,18.219 z M 70.564,58.985 h -0.289 c -1.995,0 -1.995,3.016 0,3.016 h 24.131 c 1.995,0 1.995,-3.016 0,-3.016 h -0.289 c -2.329,-15.28 -21.224,-15.28 -23.553,0 z"
       id="path1"
       style="fill:url(#linearGradient68);fill-rule:evenodd;stroke:#273c44;stroke-width:1.48354;stroke-linecap:round;stroke-linejoin:round;stroke-dasharray:none;stroke-opacity:1;paint-order:stroke fill markers" />
  </g>
  <g
     id="SvgjsG3172"
     featurekey="PPkF4s-0"
     transform="matrix(3.1454459,0,0,3.1454459,115.09412,-5.5329777)"
     fill="#ffffff"
     inkscape:label="text">
    <path
       d="M 4.66,19.5 Q 3.18,18.74 2.37,17.34 1.56,15.94 1.56,14.08 V 5.4 h 3.16 v 8.68 q 0,1.28 0.55,2.05 0.55,0.77 1.32,1.09 0.77,0.32 1.53,0.32 0.74,0 1.51,-0.32 0.77,-0.32 1.31,-1.09 0.54,-0.77 0.54,-2.05 V 5.4 h 3.16 v 8.68 q 0,1.86 -0.8,3.26 -0.8,1.4 -2.28,2.16 -1.48,0.76 -3.44,0.76 -1.98,0 -3.46,-0.76 z m 16.82,-3.42 q 0,0.7 0.24,1.17 0.24,0.47 1.12,0.47 0.4,0 0.76,-0.04 v 2.52 q -0.72,0.08 -1.34,0.08 -1.28,0 -2.07,-0.21 -0.79,-0.21 -1.23,-0.81 -0.44,-0.6 -0.44,-1.72 v -6.1 H 17.18 V 8.82 h 1.34 V 5.88 h 2.96 v 2.94 h 2.2 v 2.62 h -2.2 z m 7.3,-8.71 q -0.48,0.47 -1.16,0.47 -0.7,0 -1.19,-0.47 -0.49,-0.47 -0.49,-1.15 0,-0.66 0.49,-1.13 0.49,-0.47 1.19,-0.47 0.68,0 1.16,0.47 0.48,0.47 0.48,1.13 0,0.68 -0.48,1.15 z m -2.66,1.65 h 3 V 20 h -3 z M 32.1,4.88 h 3 V 20 h -3 z m 8.66,2.49 q -0.48,0.47 -1.16,0.47 -0.7,0 -1.19,-0.47 -0.49,-0.47 -0.49,-1.15 0,-0.66 0.49,-1.13 0.49,-0.47 1.19,-0.47 0.68,0 1.16,0.47 0.48,0.47 0.48,1.13 0,0.68 -0.48,1.15 z M 38.1,9.02 h 3 V 20 h -3 z m 9.66,7.06 q 0,0.7 0.24,1.17 0.24,0.47 1.12,0.47 0.4,0 0.76,-0.04 v 2.52 q -0.72,0.08 -1.34,0.08 -1.28,0 -2.07,-0.21 -0.79,-0.21 -1.23,-0.81 -0.44,-0.6 -0.44,-1.72 v -6.1 H 43.46 V 8.82 H 44.8 V 5.88 h 2.96 v 2.94 h 2.2 v 2.62 h -2.2 z m 7.3,-8.71 q -0.48,0.47 -1.16,0.47 -0.7,0 -1.19,-0.47 -0.49,-0.47 -0.49,-1.15 0,-0.66 0.49,-1.13 0.49,-0.47 1.19,-0.47 0.68,0 1.16,0.47 0.48,0.47 0.48,1.13 0,0.68 -0.48,1.15 z M 52.4,9.02 h 3 V 20 h -3 z m 8.77,10.72 q -1.37,-0.54 -2.35,-1.83 -0.98,-1.29 -0.98,-3.37 0,-2.08 0.99,-3.36 0.99,-1.28 2.37,-1.82 1.38,-0.54 2.62,-0.54 1.44,0 2.74,0.64 1.3,0.64 2.13,1.88 0.83,1.24 0.87,2.94 0,0.52 -0.02,0.9 -0.02,0.38 -0.04,0.48 h -8.68 q 0.24,1.16 1.2,1.58 0.96,0.42 1.8,0.42 1.08,0 1.72,-0.39 0.64,-0.39 1.1,-0.89 l 2.32,1.34 q -1.88,2.56 -5.14,2.56 -1.28,0 -2.65,-0.54 z m 0.61,-7.69 Q 61,12.66 60.9,13.54 h 5.5 q -0.06,-0.52 -0.4,-1 -0.34,-0.48 -0.91,-0.79 -0.57,-0.31 -1.29,-0.31 -1.24,0 -2.02,0.61 z m 9.58,6.49 1.56,-2.08 q 0.72,0.5 1.68,0.84 0.96,0.34 1.88,0.34 0.68,0 1.13,-0.28 0.45,-0.28 0.45,-0.7 0,-0.42 -0.51,-0.59 -0.51,-0.17 -0.99,-0.24 -0.48,-0.07 -0.62,-0.09 -1.2,-0.2 -2.07,-0.48 -0.87,-0.28 -1.58,-1 -0.71,-0.72 -0.71,-1.98 0,-2.08 1.51,-2.78 1.51,-0.7 3.03,-0.7 1.3,0 2.4,0.38 1.1,0.38 2.18,1.2 l -1.56,2.04 Q 78.36,11.96 77.6,11.68 76.84,11.4 76.02,11.4 q -0.5,0 -0.97,0.22 -0.47,0.22 -0.47,0.6 0,0.48 0.65,0.68 0.65,0.2 1.43,0.3 1.4,0.24 2.24,0.5 0.84,0.26 1.49,0.97 0.65,0.71 0.65,2.01 0,1.72 -1.18,2.65 -1.18,0.93 -3.34,0.93 -3,0 -5.16,-1.72 z"
       id="path2" />
  </g>
  <g
     id="SvgjsG3173"
     featurekey="uwAHB0-0"
     transform="matrix(0.91837902,0,0,0.91837902,119.90918,72.63565)"
     fill="#ffffff"
     inkscape:label="sub-text">
    <path
       d="M 1.46,5.84 4.98,18.38 H 5.02 L 8.6,5.84 h 1.68 l 3.58,12.54 H 13.9 L 17.42,5.84 h 1.36 L 14.66,19.98 14.64,20 h -1.6 L 9.46,7.4 H 9.42 L 5.84,20 H 4.22 L 0.1,5.84 Z m 38.688,0 v 1.2 h -7.34 v 5.04 h 6.88 v 1.2 h -6.88 v 5.52 h 7.66 V 20 h -8.98 V 5.84 Z M 58.456,18.8 q 1.7,0 2.6,-0.73 0.9,-0.73 0.9,-1.99 0,-1.36 -0.93,-2.14 -0.93,-0.78 -2.43,-0.78 h -3.26 v 5.64 z m -0.3,-6.84 q 1.44,0 2.31,-0.62 0.87,-0.62 0.87,-1.76 0,-2.48 -3,-2.54 h -3 v 4.92 z m 0.04,-6.12 q 2.22,0 3.33,0.9 1.11,0.9 1.13,2.84 0,1.12 -0.66,1.91 -0.66,0.79 -1.88,1.03 v 0.04 q 1.38,0.08 2.26,1.04 0.88,0.96 0.9,2.44 0,1.88 -1.25,2.91 -1.25,1.03 -3.45,1.05 h -4.56 V 5.84 Z m 36.616,9.2 h 6.5 l -3.2,-7.76 z m 4.04,-9.2 5.96,14.16 h -1.48 l -1.54,-3.76 h -7.5 l -1.6,3.76 h -1.38 l 6.18,-14.16 z m 23.048,6.24 q 1.28,0 2.1,-0.63 0.82,-0.63 0.84,-1.87 0,-1.16 -0.82,-1.85 -0.82,-0.69 -2.18,-0.69 h -3 v 5.04 z m -0.34,-6.24 q 2.16,0 3.36,0.96 1.2,0.96 1.24,2.78 0,1.7 -1.16,2.69 -1.16,0.99 -3.02,1.01 h -3.14 V 20 h -1.32 V 5.84 Z m 22.488,6.24 q 1.28,0 2.1,-0.63 0.82,-0.63 0.84,-1.87 0,-1.16 -0.82,-1.85 -0.82,-0.69 -2.18,-0.69 h -3 v 5.04 z m -0.34,-6.24 q 2.16,0 3.36,0.96 1.2,0.96 1.24,2.78 0,1.7 -1.16,2.69 -1.16,0.99 -3.02,1.01 h -3.14 V 20 h -1.32 V 5.84 Z"
       id="path3" />
  </g>
</svg>
