<svg xmlns="http://www.w3.org/2000/svg" xmlns:xlink="http://www.w3.org/1999/xlink" class="looka-1j8o68f" viewBox="0 0 370.001 99.997">
  <defs>
    <linearGradient id="a">
      <stop offset="0" stop-color="#d1f0fa"/>
      <stop offset="1" stop-color="#05242e"/>
    </linearGradient>
    <linearGradient xlink:href="#a" id="b" x1=".5" x2="164.18" y1="82.659" y2="82.659" gradientUnits="userSpaceOnUse"/>
  </defs>
  <path fill="url(#b)" fill-rule="evenodd" stroke="#273c44" stroke-linecap="round" stroke-linejoin="round" stroke-width="1.484" d="M92.69 143.565a61.433 61.433 0 0 1-17.963.395l-11.105 20.539-22.691-8.81 5.664-22.652a61.407 61.407 0 0 1-12.99-12.413l-22.37 6.669-9.815-22.274 20.014-12.008a61.439 61.439 0 0 1-.394-17.964L.5 63.941l8.81-22.692 22.651 5.664a61.392 61.392 0 0 1 12.415-12.99l-6.669-22.369 22.274-9.815L71.99 21.755a61.433 61.433 0 0 1 17.963-.396L101.06.82l22.689 8.81-5.663 22.652a61.407 61.407 0 0 1 12.99 12.413l22.37-6.669 9.815 22.275-20.015 12.007a61.41 61.41 0 0 1 .395 17.965l20.539 11.104-8.811 22.691-22.651-5.663a61.382 61.382 0 0 1-12.414 12.989l6.669 22.369-22.274 9.816zm-34.418-25.386V91.632c0-2.224 4.921-5.345 9.754-6.636 3.87-1.434 9.945-.02 9.558-6.415a11.487 11.487 0 0 1-6.668-10.429c0-1.354.188-2.584.522-3.695h21.805c.335 1.111.521 2.342.521 3.695 0 4.623-2.731 8.607-6.667 10.429-.388 6.396 5.688 4.981 9.559 6.416 4.833 1.292 9.753 4.412 9.753 6.635v26.551c16.856-11.393 23.686-33.546 15.191-52.823-9.554-21.683-34.877-31.515-56.56-21.96-21.683 9.554-31.515 34.877-21.96 56.56a42.703 42.703 0 0 0 15.192 18.219zm12.292-59.194h-.289c-1.995 0-1.995 3.016 0 3.016h24.131c1.995 0 1.995-3.016 0-3.016h-.289c-2.329-15.28-21.224-15.28-23.553 0z" clip-rule="evenodd" paint-order="stroke fill markers" transform="matrix(.6082 0 0 .6054 .147 -.047)"/>
  <path fill="#fff" d="M129.752 55.803q-4.655-2.39-7.203-6.794T120 38.755V11.452h9.94v27.303q0 4.026 1.73 6.448 1.73 2.422 4.152 3.429 2.422 1.006 4.812 1.006 2.328 0 4.75-1.006 2.422-1.007 4.12-3.429 1.699-2.422 1.699-6.448V11.452h9.94v27.303q0 5.85-2.517 10.254-2.516 4.404-7.172 6.794-4.655 2.39-10.82 2.39-6.228 0-10.883-2.39zm52.906-10.757q0 2.202.755 3.68.755 1.478 3.523 1.478 1.258 0 2.39-.125v7.926q-2.264.252-4.214.252-4.026 0-6.511-.66-2.485-.661-3.87-2.549-1.383-1.887-1.383-5.41V30.451h-4.215V22.21h4.215v-9.248h9.31v9.248h6.92v8.24h-6.92zm22.962-27.397q-1.51 1.478-3.649 1.478-2.201 0-3.743-1.478-1.541-1.478-1.541-3.617 0-2.076 1.541-3.555Q199.77 9 201.971 9q2.14 0 3.65 1.478 1.509 1.479 1.509 3.555 0 2.139-1.51 3.617zm-8.367 5.19h9.437v34.537h-9.437zm18.81-13.022h9.436v47.559h-9.436zm27.24 7.832q-1.51 1.478-3.65 1.478-2.201 0-3.742-1.478-1.542-1.478-1.542-3.617 0-2.076 1.542-3.555Q237.452 9 239.654 9q2.139 0 3.648 1.478 1.51 1.479 1.51 3.555 0 2.139-1.51 3.617zm-8.367 5.19h9.436v34.537h-9.436zm30.385 22.207q0 2.202.755 3.68.754 1.478 3.522 1.478 1.259 0 2.391-.125v7.926q-2.265.252-4.215.252-4.026 0-6.511-.66-2.485-.661-3.869-2.549-1.384-1.887-1.384-5.41V30.451h-4.215V22.21h4.215v-9.248h9.31v9.248h6.92v8.24h-6.92zm22.961-27.397q-1.51 1.478-3.648 1.478-2.202 0-3.743-1.478-1.542-1.478-1.542-3.617 0-2.076 1.542-3.555Q282.43 9 284.634 9q2.139 0 3.648 1.478 1.51 1.479 1.51 3.555 0 2.139-1.51 3.617zm-8.367 5.19h9.437v34.537h-9.437zm27.586 33.72q-4.31-1.7-7.392-5.757-3.082-4.058-3.082-10.6 0-6.543 3.114-10.569 3.114-4.026 7.454-5.725 4.341-1.698 8.241-1.698 4.53 0 8.619 2.013 4.09 2.013 6.7 5.913 2.61 3.9 2.736 9.248 0 1.636-.063 2.83-.062 1.196-.125 1.51H306.4q.755 3.65 3.775 4.97 3.02 1.322 5.661 1.322 3.398 0 5.41-1.227 2.014-1.227 3.46-2.8l7.298 4.215q-5.913 8.053-16.168 8.053-4.026 0-8.335-1.699zm1.919-24.19q-2.454 1.92-2.768 4.687h17.3q-.189-1.635-1.258-3.145-1.07-1.51-2.863-2.485-1.793-.975-4.057-.975-3.9 0-6.354 1.919zm30.133 20.415 4.907-6.543q2.265 1.573 5.284 2.642 3.02 1.07 5.914 1.07 2.139 0 3.554-.881 1.416-.88 1.416-2.202 0-1.32-1.605-1.856-1.604-.534-3.114-.755l-1.95-.283q-3.774-.629-6.51-1.51-2.737-.88-4.97-3.145-2.234-2.265-2.234-6.228 0-6.542 4.75-8.744t9.53-2.202q4.09 0 7.55 1.195t6.857 3.775l-4.907 6.416q-2.454-1.446-4.844-2.327-2.39-.88-4.97-.88-1.573 0-3.051.691-1.479.692-1.479 1.887 0 1.51 2.045 2.14 2.045.628 4.498.943 4.404.755 7.046 1.573 2.642.817 4.687 3.05Q370 42.845 370 46.934q0 5.41-3.712 8.335-3.711 2.926-10.505 2.926-9.437 0-16.23-5.41zM121.25 77.999l3.233 11.516h.036L127.807 78h1.543l3.288 11.516h.037L135.907 78h1.25l-3.784 12.986-.019.018h-1.47l-3.287-11.571h-.037l-3.287 11.571h-1.488L120 78Zm35.53 0v1.102h-6.74v4.629h6.318v1.102h-6.319v5.07h7.035v1.101h-8.247V78Zm16.814 11.902q1.561 0 2.388-.67.826-.67.826-1.828 0-1.249-.854-1.965t-2.231-.716h-2.994v5.18zm-.276-6.282q1.323 0 2.122-.569.799-.57.799-1.616 0-2.278-2.755-2.333h-2.755v4.518zm.037-5.62q2.039 0 3.058.827 1.02.826 1.038 2.608 0 1.028-.606 1.754-.606.725-1.727.946v.036q1.268.074 2.076.956.808.881.827 2.24 0 1.727-1.148 2.673t-3.169.964h-4.188V78Zm33.628 8.45h5.969l-2.939-7.128zm3.71-8.45 5.473 13.004h-1.359l-1.414-3.453h-6.888l-1.47 3.453h-1.267L209.444 78zm21.167 5.73q1.175 0 1.928-.578.753-.578.772-1.717 0-1.066-.753-1.7-.754-.633-2.003-.633h-2.755v4.629zm-.313-5.73q1.984 0 3.086.882 1.102.881 1.139 2.553 0 1.561-1.065 2.47-1.066.91-2.774.928h-2.884v6.171h-1.212V78Zm20.653 5.73q1.175 0 1.928-.578.754-.578.772-1.717 0-1.066-.753-1.7-.753-.633-2.002-.633h-2.755v4.629zm-.312-5.73q1.983 0 3.085.882 1.102.881 1.14 2.553 0 1.561-1.066 2.47-1.066.91-2.774.928h-2.883v6.171h-1.213V78Z"/>
</svg>
